<?xml version="1.0" encoding="UTF-8"?>
<!DOCTYPE svg PUBLIC "-//W3C//DTD SVG 1.1//EN" "http://www.w3.org/Graphics/SVG/1.1/DTD/svg11.dtd">
<svg xmlns="http://www.w3.org/2000/svg" version="1.1" width="240px" height="240px" style="shape-rendering:geometricPrecision; text-rendering:geometricPrecision; image-rendering:optimizeQuality; fill-rule:evenodd; clip-rule:evenodd" xmlns:xlink="http://www.w3.org/1999/xlink">
<g><path style="opacity:1" fill="#fefefe" d="M 105.5,5.5 C 160.137,2.72078 199.97,25.3874 225,73.5C 245.321,127.711 234.155,174.211 191.5,213C 181.269,220.285 170.269,226.285 158.5,231C 155.5,231.667 152.5,231.667 149.5,231C 148.299,230.097 147.465,228.931 147,227.5C 146.667,213.5 146.333,199.5 146,185.5C 144.893,180.619 142.726,176.286 139.5,172.5C 182.878,165.075 199.044,140.075 188,97.5C 185.535,92.7306 182.702,88.2306 179.5,84C 183.376,74.504 183.376,65.004 179.5,55.5C 175.085,55.3054 170.751,55.8054 166.5,57C 159.949,60.4422 153.283,63.6089 146.5,66.5C 128.492,61.2167 110.492,61.2167 92.5,66.5C 84.6221,62.7279 76.6221,59.2279 68.5,56C 65.2773,54.8736 62.1107,54.7069 59,55.5C 55.9476,64.7896 55.7809,74.1229 58.5,83.5C 42.6765,106.729 42.5098,130.063 58,153.5C 64.3078,160.741 72.1412,165.574 81.5,168C 87.5855,169.188 93.5855,170.688 99.5,172.5C 95.4728,177.217 92.4728,182.551 90.5,188.5C 73.3335,195.338 60.8335,190.338 53,173.5C 48.4008,168.688 42.9008,167.021 36.5,168.5C 45.1547,175.333 51.3213,184 55,194.5C 65.1746,204.167 77.0079,206.834 90.5,202.5C 91.5067,211.144 91.6733,219.811 91,228.5C 89.1473,230.592 86.8139,231.592 84,231.5C 26.3913,210.007 -0.2754,168.341 4,106.5C 15.1351,49.8646 48.9684,16.1979 105.5,5.5 Z"/></g>
</svg>
